<?xml version="1.0" encoding="utf-8"?>
<!-- Generator: Adobe Illustrator 27.3.1, SVG Export Plug-In . SVG Version: 6.00 Build 0)  -->
<svg version="1.1" id="Layer_1" xmlns="http://www.w3.org/2000/svg" xmlns:xlink="http://www.w3.org/1999/xlink" x="0px" y="0px"
	 viewBox="0 0 329.9 58.8" style="enable-background:new 0 0 329.9 58.8;" xml:space="preserve">
<style type="text/css">
	.st0{fill:url(#SVGID_1_);}
	.st1{fill:#3563AE;}
	.st2{fill:url(#SVGID_00000008861943846414716230000006981702343583385789_);}
	.st3{fill:#3563AE;stroke:#FFFFFF;stroke-width:3.047;stroke-miterlimit:10;}
	.st4{fill:none;stroke:#FFFFFF;stroke-width:3.047;stroke-miterlimit:10;}
</style>
<g>
	<g>
		<g>
			
				<linearGradient id="SVGID_1_" gradientUnits="userSpaceOnUse" x1="31.2596" y1="56.8745" x2="62.9606" y2="1.9666" gradientTransform="matrix(1 0 0 -1 0 60)">
				<stop  offset="4.473138e-03" style="stop-color:#57C4C2"/>
				<stop  offset="1" style="stop-color:#41BFBA"/>
			</linearGradient>
			<path class="st0" d="M68.3,28.5c0,7.3-2.8,14-7.4,19l2.6,9.1c0.3,1.1-0.7,2-1.8,1.6L51.9,54c-3.6,1.6-7.5,2.6-11.7,2.6
				c-1.7,0-3.4-0.1-5-0.5c13.1-2.4,23.1-13.9,23.1-27.6c0-13.8-10-25.3-23.1-27.6c1.6-0.3,3.3-0.5,5-0.5C55.7,0.4,68.3,13,68.3,28.5
				z"/>
			<path class="st1" d="M35.2,0.9c13.1,2.4,23.1,13.9,23.1,27.6c0,13.8-10,25.3-23.1,27.6c-13.1-2.4-23.1-13.9-23.1-27.6
				C12.1,14.7,22.1,3.2,35.2,0.9z"/>
			
				<linearGradient id="SVGID_00000128478555129788437950000010123521290781101483_" gradientUnits="userSpaceOnUse" x1="7.372" y1="1.9688" x2="39.0713" y2="56.8735" gradientTransform="matrix(1 0 0 -1 0 60)">
				<stop  offset="2.711845e-06" style="stop-color:#5F59A6"/>
				<stop  offset="1" style="stop-color:#439FD9"/>
			</linearGradient>
			<path style="fill:url(#SVGID_00000128478555129788437950000010123521290781101483_);" d="M30.2,0.4c1.7,0,3.4,0.1,5,0.5
				C22.1,3.2,12.1,14.7,12.1,28.5c0,13.8,10,25.3,23.1,27.6c-1.6,0.3-3.3,0.5-5,0.5c-4.2,0-8.1-0.9-11.7-2.6l-9.8,4.1
				c-1,0.4-2.1-0.5-1.8-1.6l2.6-9.1c-4.6-5-7.4-11.7-7.4-19C2.1,13,14.7,0.4,30.2,0.4z"/>
			<g>
				<circle class="st3" cx="6.4" cy="43.4" r="3.6"/>
				<circle class="st3" cx="19" cy="27.3" r="3.6"/>
				<circle class="st3" cx="34.6" cy="35.6" r="3.6"/>
				<circle class="st3" cx="43.1" cy="12" r="3.6"/>
				<circle class="st3" cx="67.6" cy="32.6" r="3.6"/>
				<line class="st4" x1="8.4" y1="40.1" x2="16.7" y2="29.9"/>
				<line class="st4" x1="22.4" y1="28.2" x2="31.5" y2="35.2"/>
				<line class="st4" x1="37.4" y1="32.8" x2="41.8" y2="15.1"/>
				<line class="st4" x1="46.4" y1="13.7" x2="65.7" y2="30.1"/>
			</g>
		</g>
	</g>
	<g>
		<path class="st1" d="M83.8,57.6V26.3h3.8L99,43.6l11.3-17.3h3.9v31.3h-3.1V30.9L99.5,48.1h-0.9L86.9,30.7v26.9H83.8z"/>
		<path class="st1" d="M117.7,46.5c0-2.2,0.5-4.2,1.5-6c1-1.7,2.4-3.1,4.1-4s3.6-1.4,5.7-1.4c1.8,0,3.5,0.4,5.1,1.2
			c1.6,0.8,2.8,2,3.6,3.5v-4.4h2.8v22.1h-2.8v-4.4c-0.9,1.6-2.2,2.8-3.8,3.6c-1.6,0.8-3.3,1.2-5,1.2c-3.2,0-5.9-1.1-8-3.2
			C118.8,52.8,117.7,50,117.7,46.5z M120.7,46.5c0,2.6,0.8,4.6,2.4,6.2s3.6,2.4,6,2.4c1.4,0,2.6-0.2,3.7-0.7c1.1-0.5,2-1.1,2.7-1.9
			c0.7-0.8,1.2-1.7,1.6-2.8c0.4-1,0.6-2.1,0.6-3.2c0-1.1-0.2-2.1-0.6-3.2c-0.4-1-0.9-2-1.6-2.8c-0.7-0.8-1.6-1.5-2.7-1.9
			c-1.1-0.5-2.4-0.7-3.7-0.7c-2.4,0-4.4,0.8-6,2.4C121.5,41.9,120.7,44,120.7,46.5z"/>
		<path class="st1" d="M143.2,46.6c0-1.8,0.3-3.3,0.9-4.8c0.6-1.4,1.4-2.6,2.4-3.6c1-1,2.2-1.7,3.6-2.2c1.4-0.5,2.9-0.8,4.5-0.8
			c3,0,5.6,1.1,7.8,3.3l-2,1.9c-1.6-1.6-3.6-2.4-5.8-2.4c-2.4,0-4.5,0.8-6.1,2.3c-1.6,1.5-2.4,3.6-2.4,6.2c0,2.7,0.8,4.7,2.4,6.2
			c1.6,1.5,3.6,2.3,6,2.3c2.4,0,4.5-0.8,6.1-2.5l2,2c-2.3,2.2-5,3.3-8.2,3.3c-1.6,0-3-0.3-4.4-0.8c-1.4-0.5-2.6-1.3-3.6-2.2
			c-1-1-1.9-2.1-2.5-3.6C143.5,49.9,143.2,48.3,143.2,46.6z"/>
		<path class="st1" d="M166.1,57.6V26.3h3v13c1.7-2.7,4.2-4.1,7.7-4.1c3,0,5.3,0.9,6.8,2.7c1.6,1.8,2.4,4.2,2.4,7.3v12.4h-3V45.2
			c0-2.3-0.6-4-1.7-5.3s-2.7-1.9-4.9-1.9c-2.1,0-3.9,0.7-5.2,2.2c-1.4,1.5-2,3.3-2,5.4v11.9L166.1,57.6L166.1,57.6z"/>
		<g>
			<path class="st1" d="M219.8,41.7c0.1,7.9-4.7,15.9-15.6,15.9c-3.8,0-8.4,0-12.3,0V26.3c3.8,0,8.4,0,12.3,0
				C214.9,26.3,219.7,34,219.8,41.7z M197.8,51.9h6.4c7.1,0,9.9-5.2,9.8-10.3c-0.1-4.9-3-9.7-9.8-9.7h-6.4L197.8,51.9L197.8,51.9z"
				/>
			<path class="st1" d="M240.3,35.6h5.2v22h-5.1l-0.3-3.2c-1.3,2.6-4.7,3.8-7.1,3.9c-6.5,0-11.3-4-11.3-11.7
				c0-7.6,5.1-11.6,11.5-11.5c2.9,0,5.8,1.4,7,3.6L240.3,35.6z M227,46.6c0,4.2,2.9,6.7,6.5,6.7c8.6,0,8.6-13.4,0-13.4
				C229.9,39.9,227,42.4,227,46.6z"/>
			<path class="st1" d="M263,52.3c-0.8,0.4-1.8,0.7-2.6,0.7c-1.7,0-2.9-1-2.9-3.1v-9.5h6.1v-4.7h-6.1v-9.3h-5.5v9.3H248v4.7h4.1v9.5
				c0,5.5,3.1,8.2,7.9,8c1.7,0,2.9-0.3,4.5-0.9L263,52.3z"/>
			<path class="st1" d="M272.1,35.6v11.5c0,3.3,1.8,5.9,5.3,5.9c3.3,0,5.6-2.8,5.6-6.2V35.6h5.4v22.1h-4.9l-0.4-3
				c-2.3,2.2-4.4,3.3-7.5,3.3c-5.3,0-9.1-4-9.1-10.8V35.6L272.1,35.6L272.1,35.6z"/>
			<path class="st1" d="M307,57.6V45.8c0-2.9-1.5-5.5-4.5-5.5c-2.9,0-4.7,2.6-4.7,5.5v11.8h-5.4V35.5h5.1l0.4,2.7
				c1.2-2.2,3.7-3,5.8-3c2.6,0,5.3,1.1,6.5,4.1c2-3.1,4.5-4,7.4-4c6.3,0,9.3,3.8,9.3,10.5v11.9h-5.4V45.7c0-2.9-1.2-5.4-4.2-5.4
				c-2.9,0-4.8,2.6-4.8,5.4v11.8L307,57.6L307,57.6z"/>
		</g>
	</g>
</g>
</svg>
